<?xml version="1.0" encoding="utf-8"?>
<!-- Generator: Adobe Illustrator 21.1.0, SVG Export Plug-In . SVG Version: 6.00 Build 0)  -->
<svg version="1.1" id="Layer_1" xmlns="http://www.w3.org/2000/svg" xmlns:xlink="http://www.w3.org/1999/xlink" x="0px" y="0px"
	 viewBox="0 0 154 53.4" style="enable-background:new 0 0 154 53.4;" xml:space="preserve">
<style type="text/css">
	.st0{fill:#002B45;}
	.st1{fill:#FFFFFF;}
</style>
<g>
	<path class="st0" d="M74.6,39c-0.4,0-0.6-0.1-0.6-0.6V15c0-0.4,0.1-0.6,0.6-0.6h11.3c4.4,0,6.9,2.4,6.9,6.5v11.5
		c0,4.1-2.5,6.5-6.9,6.5L74.6,39L74.6,39z M85.2,34c1.7,0,2.3-0.7,2.3-2.5v-9.7c0-1.8-0.7-2.5-2.3-2.5h-5.9v14.6h5.9V34z
		 M101.6,38.4c0,0.4-0.1,0.6-0.6,0.6h-4.2c-0.4,0-0.6-0.1-0.6-0.6V15c0-0.4,0.1-0.6,0.6-0.6h15.1c0.4,0,0.6,0.1,0.6,0.6v3.8
		c0,0.4-0.1,0.6-0.6,0.6h-10.3v5.3h9c0.4,0,0.6,0.1,0.6,0.6v3.8c0,0.4-0.1,0.6-0.6,0.6h-9V38.4z M115.9,39c-0.4,0-0.6-0.1-0.6-0.6
		V15c0-0.4,0.1-0.6,0.6-0.6h11.3c4.4,0,6.9,2.4,6.9,6.5v11.5c0,4.1-2.5,6.5-6.9,6.5L115.9,39L115.9,39z M126.5,34
		c1.7,0,2.3-0.7,2.3-2.5v-9.7c0-1.8-0.7-2.5-2.3-2.5h-5.9v14.6h5.9V34z M137.6,39c-0.4,0-0.6-0.1-0.6-0.6v-3.8
		c0-0.4,0.1-0.6,0.6-0.6c0,0,5,0.1,8.8,0.1c1.7,0,2.3-0.1,2.3-1.9v-0.6c0-1.3-0.3-1.7-1.5-2l-5.4-1.8c-2.4-0.7-4.8-1.5-4.8-5.9V20
		c0-4.1,2.5-5.9,6.9-5.9c3.8,0,8.2,0.1,8.2,0.1c0.4,0,0.6,0.1,0.6,0.6v3.8c0,0.4-0.1,0.6-0.6,0.6c0,0-4-0.1-7.5-0.1
		c-1.7,0-2.3,0-2.3,1.8v0.5c0,1.3,0.3,1.5,1.5,1.9l5.4,1.8c2.3,0.7,4.8,1.5,4.8,5.9v1.9c0,4.1-2.5,6.1-6.9,6.1
		C142.7,39.1,137.6,39,137.6,39z"/>
	<path class="st0" d="M43.5,53.2L74,0.7c0.2-0.3,0-0.6-0.3-0.6H30.9c-0.1,0-0.3,0.1-0.3,0.2L0.1,52.7c-0.2,0.3,0,0.6,0.3,0.6h42.7
		C43.3,53.4,43.4,53.3,43.5,53.2z"/>
	<path class="st1" d="M49.1,34.7l-9.9-5.9c-0.1,0-0.2,0-0.1,0.1l5.9,9.9c0,0.1,0,0.2-0.1,0.2H29.1C29,39,29,38.9,29,38.8l6-9.9
		c0-0.1,0-0.2-0.1-0.1L25,34.7c-0.1,0-0.2,0-0.2-0.1V18.8c0-0.1,0.1-0.1,0.2-0.1l9.8,5.9c0.1,0,0.2,0,0.1-0.1L29,14.6
		c0-0.1,0-0.2,0.1-0.2h15.8c0.1,0,0.1,0.1,0.1,0.2l-5.9,9.9c0,0.1,0,0.2,0.1,0.1l9.8-5.9c0.1,0,0.2,0,0.2,0.1L49.1,34.7
		C49.3,34.7,49.2,34.8,49.1,34.7z"/>
</g>
</svg>
